<svg xmlns="http://www.w3.org/2000/svg" viewBox="0 0 25 25" shape-rendering="crispEdges"><rect width="25" height="25" fill="#ffffff"></rect><path d="M0 0h1v1h-1zM1 0h1v1h-1zM2 0h1v1h-1zM3 0h1v1h-1zM4 0h1v1h-1zM5 0h1v1h-1zM6 0h1v1h-1zM10 0h1v1h-1zM11 0h1v1h-1zM12 0h1v1h-1zM14 0h1v1h-1zM16 0h1v1h-1zM18 0h1v1h-1zM19 0h1v1h-1zM20 0h1v1h-1zM21 0h1v1h-1zM22 0h1v1h-1zM23 0h1v1h-1zM24 0h1v1h-1zM0 1h1v1h-1zM6 1h1v1h-1zM8 1h1v1h-1zM10 1h1v1h-1zM11 1h1v1h-1zM16 1h1v1h-1zM18 1h1v1h-1zM24 1h1v1h-1zM0 2h1v1h-1zM2 2h1v1h-1zM3 2h1v1h-1zM4 2h1v1h-1zM6 2h1v1h-1zM8 2h1v1h-1zM9 2h1v1h-1zM11 2h1v1h-1zM12 2h1v1h-1zM18 2h1v1h-1zM20 2h1v1h-1zM21 2h1v1h-1zM22 2h1v1h-1zM24 2h1v1h-1zM0 3h1v1h-1zM2 3h1v1h-1zM3 3h1v1h-1zM4 3h1v1h-1zM6 3h1v1h-1zM15 3h1v1h-1zM18 3h1v1h-1zM20 3h1v1h-1zM21 3h1v1h-1zM22 3h1v1h-1zM24 3h1v1h-1zM0 4h1v1h-1zM2 4h1v1h-1zM3 4h1v1h-1zM4 4h1v1h-1zM6 4h1v1h-1zM9 4h1v1h-1zM10 4h1v1h-1zM14 4h1v1h-1zM16 4h1v1h-1zM18 4h1v1h-1zM20 4h1v1h-1zM21 4h1v1h-1zM22 4h1v1h-1zM24 4h1v1h-1zM0 5h1v1h-1zM6 5h1v1h-1zM18 5h1v1h-1zM24 5h1v1h-1zM0 6h1v1h-1zM1 6h1v1h-1zM2 6h1v1h-1zM3 6h1v1h-1zM4 6h1v1h-1zM5 6h1v1h-1zM6 6h1v1h-1zM8 6h1v1h-1zM10 6h1v1h-1zM12 6h1v1h-1zM14 6h1v1h-1zM16 6h1v1h-1zM18 6h1v1h-1zM19 6h1v1h-1zM20 6h1v1h-1zM21 6h1v1h-1zM22 6h1v1h-1zM23 6h1v1h-1zM24 6h1v1h-1zM9 7h1v1h-1zM11 7h1v1h-1zM14 7h1v1h-1zM15 7h1v1h-1zM0 8h1v1h-1zM3 8h1v1h-1zM5 8h1v1h-1zM6 8h1v1h-1zM7 8h1v1h-1zM11 8h1v1h-1zM12 8h1v1h-1zM15 8h1v1h-1zM18 8h1v1h-1zM20 8h1v1h-1zM21 8h1v1h-1zM22 8h1v1h-1zM0 9h1v1h-1zM2 9h1v1h-1zM3 9h1v1h-1zM4 9h1v1h-1zM5 9h1v1h-1zM7 9h1v1h-1zM8 9h1v1h-1zM10 9h1v1h-1zM13 9h1v1h-1zM14 9h1v1h-1zM15 9h1v1h-1zM19 9h1v1h-1zM22 9h1v1h-1zM0 10h1v1h-1zM1 10h1v1h-1zM2 10h1v1h-1zM4 10h1v1h-1zM6 10h1v1h-1zM12 10h1v1h-1zM14 10h1v1h-1zM16 10h1v1h-1zM17 10h1v1h-1zM23 10h1v1h-1zM24 10h1v1h-1zM0 11h1v1h-1zM2 11h1v1h-1zM4 11h1v1h-1zM5 11h1v1h-1zM7 11h1v1h-1zM8 11h1v1h-1zM9 11h1v1h-1zM11 11h1v1h-1zM12 11h1v1h-1zM14 11h1v1h-1zM17 11h1v1h-1zM19 11h1v1h-1zM21 11h1v1h-1zM22 11h1v1h-1zM1 12h1v1h-1zM4 12h1v1h-1zM6 12h1v1h-1zM11 12h1v1h-1zM12 12h1v1h-1zM15 12h1v1h-1zM21 12h1v1h-1zM23 12h1v1h-1zM24 12h1v1h-1zM0 13h1v1h-1zM1 13h1v1h-1zM2 13h1v1h-1zM4 13h1v1h-1zM5 13h1v1h-1zM7 13h1v1h-1zM8 13h1v1h-1zM9 13h1v1h-1zM11 13h1v1h-1zM12 13h1v1h-1zM15 13h1v1h-1zM17 13h1v1h-1zM24 13h1v1h-1zM1 14h1v1h-1zM2 14h1v1h-1zM3 14h1v1h-1zM4 14h1v1h-1zM6 14h1v1h-1zM9 14h1v1h-1zM13 14h1v1h-1zM16 14h1v1h-1zM18 14h1v1h-1zM21 14h1v1h-1zM1 15h1v1h-1zM4 15h1v1h-1zM8 15h1v1h-1zM13 15h1v1h-1zM14 15h1v1h-1zM15 15h1v1h-1zM16 15h1v1h-1zM19 15h1v1h-1zM20 15h1v1h-1zM21 15h1v1h-1zM23 15h1v1h-1zM1 16h1v1h-1zM6 16h1v1h-1zM10 16h1v1h-1zM13 16h1v1h-1zM14 16h1v1h-1zM17 16h1v1h-1zM20 16h1v1h-1zM22 16h1v1h-1zM23 16h1v1h-1zM24 16h1v1h-1zM10 17h1v1h-1zM12 17h1v1h-1zM14 17h1v1h-1zM15 17h1v1h-1zM16 17h1v1h-1zM24 17h1v1h-1zM0 18h1v1h-1zM1 18h1v1h-1zM2 18h1v1h-1zM3 18h1v1h-1zM4 18h1v1h-1zM5 18h1v1h-1zM6 18h1v1h-1zM8 18h1v1h-1zM10 18h1v1h-1zM13 18h1v1h-1zM16 18h1v1h-1zM19 18h1v1h-1zM20 18h1v1h-1zM21 18h1v1h-1zM22 18h1v1h-1zM24 18h1v1h-1zM0 19h1v1h-1zM6 19h1v1h-1zM9 19h1v1h-1zM10 19h1v1h-1zM13 19h1v1h-1zM14 19h1v1h-1zM18 19h1v1h-1zM20 19h1v1h-1zM21 19h1v1h-1zM22 19h1v1h-1zM23 19h1v1h-1zM0 20h1v1h-1zM2 20h1v1h-1zM3 20h1v1h-1zM4 20h1v1h-1zM6 20h1v1h-1zM11 20h1v1h-1zM12 20h1v1h-1zM15 20h1v1h-1zM16 20h1v1h-1zM17 20h1v1h-1zM19 20h1v1h-1zM22 20h1v1h-1zM0 21h1v1h-1zM2 21h1v1h-1zM3 21h1v1h-1zM4 21h1v1h-1zM6 21h1v1h-1zM8 21h1v1h-1zM10 21h1v1h-1zM11 21h1v1h-1zM13 21h1v1h-1zM14 21h1v1h-1zM15 21h1v1h-1zM17 21h1v1h-1zM19 21h1v1h-1zM23 21h1v1h-1zM0 22h1v1h-1zM2 22h1v1h-1zM3 22h1v1h-1zM4 22h1v1h-1zM6 22h1v1h-1zM9 22h1v1h-1zM10 22h1v1h-1zM12 22h1v1h-1zM13 22h1v1h-1zM14 22h1v1h-1zM16 22h1v1h-1zM18 22h1v1h-1zM19 22h1v1h-1zM22 22h1v1h-1zM23 22h1v1h-1zM0 23h1v1h-1zM6 23h1v1h-1zM8 23h1v1h-1zM9 23h1v1h-1zM14 23h1v1h-1zM17 23h1v1h-1zM19 23h1v1h-1zM21 23h1v1h-1zM0 24h1v1h-1zM1 24h1v1h-1zM2 24h1v1h-1zM3 24h1v1h-1zM4 24h1v1h-1zM5 24h1v1h-1zM6 24h1v1h-1zM8 24h1v1h-1zM10 24h1v1h-1zM11 24h1v1h-1zM13 24h1v1h-1zM18 24h1v1h-1zM20 24h1v1h-1z" fill="#232a31"></path></svg>